<svg width="913" height="908" viewBox="0 0 913 908" fill="none" xmlns="http://www.w3.org/2000/svg">
<rect width="913" height="908" rx="128" fill="white"/>
<path d="M193.772 409.649C195.292 410.079 196.813 410.509 198.333 410.938C199.953 411.397 201.572 411.86 203.191 412.324C208.328 413.795 213.472 415.242 218.615 416.692C220.383 417.191 222.151 417.691 223.919 418.19C235.394 421.431 246.896 424.564 258.408 427.664C259.349 427.918 260.29 428.171 261.259 428.432C264.955 429.427 268.651 430.421 272.348 431.413C277.579 432.817 282.807 434.229 288.034 435.649C291.2 436.508 294.366 437.364 297.533 438.219C298.992 438.613 300.45 439.009 301.908 439.407C303.875 439.943 305.843 440.474 307.812 441.003C308.389 441.162 308.966 441.32 309.561 441.484C310.883 441.836 312.217 442.141 313.554 442.434C313.824 442.178 314.094 441.922 314.373 441.659C313.739 440.84 313.105 440.022 312.452 439.178C307.662 432.977 302.938 426.743 298.374 420.372C297.129 418.67 295.863 417.062 294.52 415.443C292.812 413.146 292.812 413.146 292.878 410.754C307.174 410.321 307.174 410.321 310.764 413.138C311.703 414.092 312.605 415.085 313.475 416.104C314.767 417.453 316.06 418.801 317.354 420.149C318.008 420.856 318.662 421.563 319.336 422.291C320.967 424.017 322.63 425.632 324.391 427.222C327.33 429.878 330.01 432.734 332.713 435.627C334.73 437.728 336.843 439.68 339.032 441.6C340.659 443.175 340.659 443.175 341.918 444.898C347.501 452.191 355.439 453.295 363.912 455.378C365.576 455.807 367.241 456.239 368.904 456.673C372.622 457.64 376.342 458.593 380.065 459.539C386.58 461.2 393.073 462.943 399.565 464.692C404.758 466.091 409.953 467.483 415.148 468.877C416.439 469.223 417.73 469.57 419.021 469.917C422.733 470.915 426.447 471.908 430.163 472.893C431.304 473.197 432.445 473.502 433.586 473.81C435.159 474.233 436.734 474.65 438.309 475.066C439.637 475.42 439.637 475.42 440.992 475.782C445.583 476.741 445.583 476.741 449.975 475.579C450.497 475.176 451.019 474.773 451.556 474.358C452.148 473.911 452.74 473.463 453.35 473.002C453.967 472.518 454.584 472.034 455.22 471.535C456.524 470.545 457.827 469.555 459.131 468.566C460.09 467.828 460.09 467.828 461.069 467.075C463.626 465.111 466.213 463.191 468.814 461.285C469.607 460.695 470.401 460.105 471.219 459.496C476.585 455.898 480.772 455.033 487.079 456.195C490.805 456.94 494.507 457.779 498.206 458.647C497.831 462.939 495.32 464.94 492.372 467.763C491.402 468.719 490.433 469.677 489.467 470.638C488.988 471.114 488.508 471.59 488.015 472.08C484.904 475.249 482.062 478.656 479.216 482.063C481.817 483.01 483.759 483.088 486.522 483.167C488.028 483.21 488.028 483.21 489.564 483.254C490.658 483.281 491.751 483.307 492.844 483.333C493.402 483.348 493.96 483.362 494.535 483.377C501.621 483.56 508.691 483.614 515.778 483.461C524.176 483.299 532.564 483.382 540.961 483.564C542.399 483.594 543.837 483.62 545.275 483.641C557.857 483.836 572.798 484.526 582.278 494.064C583.071 494.955 583.86 495.85 584.644 496.75C589.247 501.888 592.983 504.297 599.773 505.629C600.584 505.805 601.396 505.981 602.231 506.162C604.088 506.563 605.946 506.956 607.806 507.342C611.231 508.055 614.645 508.811 618.06 509.57C625.757 511.277 633.461 512.953 641.166 514.624C643.492 515.128 645.817 515.632 648.143 516.137C741.267 537.186 741.267 537.186 835.539 551.632C835.51 552.685 835.481 553.737 835.452 554.821C820.85 558.572 807.026 560.62 791.919 560.364C790.964 560.356 790.01 560.347 789.027 560.339C764.128 559.599 738.986 552.786 714.668 547.907C711.622 547.296 708.575 546.688 705.529 546.08C683.432 541.673 661.348 537.21 639.292 532.603C637.964 532.326 637.964 532.326 636.61 532.044C628.218 530.292 619.826 528.536 611.441 526.754C608.416 526.113 605.391 525.477 602.366 524.843C600.974 524.549 599.583 524.253 598.193 523.955C596.309 523.55 594.424 523.154 592.538 522.76C591.993 522.64 591.448 522.521 590.887 522.397C586.478 521.492 583.901 521.552 580.117 524.034C579.186 524.743 578.261 525.458 577.34 526.18C576.321 526.956 575.302 527.731 574.282 528.506C573.264 529.287 572.247 530.069 571.229 530.85C557.83 541.08 545.966 548.784 528.497 547.235C527.991 547.089 527.485 546.942 526.963 546.791C511.062 542.504 485.561 544.951 469.91 549.527C463.748 551.24 457.61 551.082 451.267 550.946C449.701 550.917 448.135 550.909 446.568 550.902C431.371 550.584 417.145 545.753 402.81 541.061C400.119 540.182 397.423 539.319 394.727 538.456C392.987 537.892 391.247 537.327 389.507 536.76C388.715 536.507 387.923 536.255 387.107 535.994C378.243 533.066 369.587 529.322 364.916 520.827C362.702 515.687 362.362 508.978 364.261 503.654C364.367 503.131 364.472 502.608 364.581 502.069C363.285 500.133 362.005 498.471 360.489 496.722C360.065 496.216 359.64 495.71 359.203 495.19C357.92 493.665 356.622 492.154 355.319 490.647C354.96 490.229 354.6 489.812 354.229 489.382C352.63 487.528 351.027 485.677 349.422 483.829C347.541 481.605 345.748 479.332 343.973 477.023C343.109 475.918 343.109 475.918 342.227 474.791C340.651 472.694 340.651 472.694 339.517 470.833C336.94 466.916 334.069 465.522 329.661 464.284C328.753 464.017 328.753 464.017 327.826 463.745C325.555 463.081 323.279 462.433 321.003 461.785C319.526 461.36 318.049 460.935 316.572 460.509C310.72 458.824 304.864 457.153 299.007 455.486C291.823 453.443 284.641 451.39 277.46 449.336C276.81 449.15 276.16 448.964 275.491 448.773C258.773 443.989 242.065 439.174 225.422 434.134C223.804 433.645 222.185 433.161 220.565 432.679C204.371 427.808 189.108 420.657 173.768 413.613C173.263 413.381 172.758 413.149 172.238 412.91C170.674 412.16 169.149 411.353 167.626 410.525C167.647 409.735 167.669 408.946 167.691 408.133C169.159 407.9 170.628 407.676 172.097 407.455C173.324 407.267 173.324 407.267 174.576 407.074C181.53 406.373 187.109 407.72 193.772 409.649ZM373.272 475.978C376.326 479.946 379.629 483.649 383.035 487.315C383.47 487.792 383.906 488.27 384.355 488.762C384.776 489.21 385.198 489.659 385.632 490.122C386.008 490.527 386.385 490.932 386.772 491.349C388.294 492.589 389.195 492.955 391.151 493.221C393.727 492.888 393.727 492.888 396.551 492.225C397.063 492.114 397.575 492.002 398.103 491.888C399.732 491.533 401.358 491.167 402.985 490.802C404.091 490.558 405.198 490.316 406.305 490.074C409.013 489.481 411.718 488.879 414.423 488.272C412.641 486.39 411.695 486.156 409.232 485.474C408.477 485.262 407.721 485.05 406.943 484.831C406.124 484.608 405.306 484.384 404.463 484.154C403.625 483.921 402.788 483.688 401.925 483.448C400.152 482.955 398.379 482.466 396.605 481.979C393.882 481.231 391.161 480.475 388.441 479.718C386.721 479.241 385.001 478.765 383.281 478.29C382.463 478.063 381.645 477.836 380.802 477.603C380.046 477.395 379.29 477.188 378.512 476.975C377.845 476.791 377.178 476.608 376.491 476.419C374.887 475.966 374.887 475.966 373.272 475.978Z" fill="#6A942E"/>
<path d="M632.475 577.532C608.996 612.135 568.788 653.916 529.413 667.995C490.038 682.075 442.928 686.713 402.832 674.842C362.736 662.972 327.454 638.655 302.09 605.41C276.726 572.164 262.913 519.39 262.056 477.583L293.574 486.325C294.295 521.498 305.617 558.469 326.956 586.439C348.295 614.408 377.977 634.866 411.711 644.852C445.444 654.839 481.479 653.838 514.605 641.993C547.732 630.148 580.299 598.607 600.051 569.495L632.475 577.532Z" fill="#6A942E"/>
<path d="M296.653 370.05C323.424 342.528 338.604 319.227 409.675 293.482C446.599 283.93 485.209 284.859 521.127 296.164C557.046 307.468 586.818 329.865 610.875 358.61C639.983 396.759 650.92 436.722 655.846 474.22L621.7 467.371C617.737 437.204 603.261 401.027 583.906 377.901C564.552 354.776 537.802 337.002 508.906 327.907C480.009 318.812 449.661 318.682 420.608 326.198C396.113 332.535 352.414 355.314 330.876 377.456L296.653 370.05Z" fill="#6A942E"/>
</svg>
