<svg width="936" height="875" viewBox="0 0 936 875" fill="none" xmlns="http://www.w3.org/2000/svg">
<path d="M197.903 228.746C199.237 229.123 200.572 229.501 201.906 229.878C203.328 230.281 204.749 230.687 206.17 231.094C210.679 232.385 215.194 233.655 219.708 234.928C221.26 235.366 222.812 235.804 224.364 236.243C234.435 239.087 244.53 241.837 254.635 244.558C255.461 244.781 256.287 245.003 257.138 245.232C260.382 246.105 263.626 246.978 266.87 247.849C271.461 249.081 276.051 250.32 280.638 251.566C283.417 252.321 286.196 253.072 288.976 253.822C290.256 254.168 291.536 254.516 292.816 254.865C294.542 255.336 296.269 255.801 297.997 256.266C298.504 256.405 299.011 256.544 299.533 256.688C300.693 256.997 301.864 257.265 303.037 257.522C303.274 257.297 303.511 257.073 303.756 256.841C303.2 256.123 302.643 255.405 302.07 254.664C297.866 249.221 293.719 243.75 289.714 238.158C288.621 236.664 287.509 235.253 286.331 233.831C284.832 231.815 284.832 231.815 284.889 229.716C297.438 229.336 297.438 229.336 300.588 231.808C301.413 232.646 302.204 233.518 302.968 234.411C304.102 235.596 305.237 236.779 306.372 237.962C306.947 238.582 307.521 239.203 308.113 239.842C309.544 241.357 311.003 242.775 312.549 244.17C315.129 246.502 317.481 249.008 319.853 251.548C321.624 253.391 323.479 255.105 325.4 256.79C326.828 258.172 326.828 258.172 327.933 259.685C332.833 266.085 339.801 267.055 347.237 268.883C348.698 269.26 350.159 269.639 351.619 270.02C354.882 270.868 358.148 271.705 361.415 272.535C367.134 273.993 372.832 275.523 378.53 277.058C383.089 278.286 387.648 279.508 392.208 280.731C393.341 281.035 394.474 281.34 395.607 281.644C398.865 282.52 402.125 283.392 405.387 284.256C406.389 284.523 407.39 284.791 408.391 285.061C409.772 285.433 411.154 285.798 412.537 286.163C413.703 286.474 413.703 286.474 414.892 286.792C418.921 287.634 418.921 287.634 422.776 286.614C423.234 286.26 423.692 285.906 424.164 285.542C424.683 285.149 425.203 284.757 425.738 284.352C426.28 283.927 426.822 283.502 427.38 283.064C428.524 282.195 429.668 281.326 430.813 280.458C431.654 279.81 431.654 279.81 432.513 279.149C434.758 277.426 437.029 275.741 439.311 274.068C440.008 273.55 440.704 273.032 441.422 272.498C446.132 269.339 449.807 268.58 455.343 269.6C458.613 270.254 461.862 270.99 465.109 271.752C464.78 275.52 462.576 277.276 459.988 279.753C459.137 280.592 458.287 281.434 457.439 282.277C457.018 282.694 456.597 283.112 456.164 283.542C453.434 286.324 450.939 289.315 448.441 292.305C450.724 293.136 452.429 293.205 454.854 293.273C456.176 293.312 456.176 293.312 457.524 293.35C458.484 293.374 459.443 293.397 460.403 293.42C460.893 293.432 461.382 293.445 461.887 293.458C468.106 293.619 474.312 293.666 480.532 293.532C487.903 293.389 495.266 293.462 502.636 293.623C503.898 293.649 505.16 293.672 506.422 293.69C517.465 293.861 530.579 294.466 538.9 302.838C539.596 303.62 540.289 304.406 540.977 305.195C545.017 309.706 548.296 311.82 554.256 312.989C554.968 313.143 555.68 313.298 556.413 313.457C558.043 313.809 559.674 314.153 561.306 314.493C564.312 315.118 567.31 315.782 570.307 316.448C577.063 317.946 583.824 319.418 590.587 320.884C592.628 321.326 594.67 321.769 596.711 322.212C678.447 340.687 678.447 340.687 761.191 353.367C761.166 354.291 761.14 355.214 761.114 356.166C748.298 359.458 736.165 361.255 722.905 361.031C722.067 361.023 721.23 361.016 720.366 361.009C698.513 360.359 676.445 354.379 655.101 350.097C652.427 349.561 649.753 349.027 647.079 348.494C627.685 344.625 608.301 340.708 588.942 336.665C587.777 336.422 587.777 336.422 586.588 336.173C579.222 334.636 571.857 333.095 564.497 331.531C561.842 330.968 559.187 330.41 556.531 329.853C555.31 329.596 554.089 329.336 552.869 329.074C551.216 328.718 549.561 328.371 547.905 328.025C547.427 327.92 546.949 327.815 546.457 327.707C542.586 326.912 540.324 326.965 537.003 329.143C536.186 329.765 535.374 330.394 534.566 331.027C533.672 331.708 532.777 332.388 531.882 333.068C530.989 333.754 530.096 334.44 529.202 335.126C517.442 344.105 507.029 350.866 491.696 349.507C491.252 349.379 490.807 349.25 490.35 349.118C476.393 345.355 454.011 347.503 440.273 351.519C434.865 353.023 429.477 352.883 423.91 352.764C422.535 352.739 421.161 352.732 419.786 352.725C406.447 352.447 393.96 348.207 381.378 344.088C379.017 343.317 376.651 342.559 374.284 341.802C372.757 341.307 371.229 340.81 369.702 340.313C369.007 340.091 368.312 339.869 367.596 339.641C359.816 337.071 352.218 333.784 348.119 326.329C346.175 321.817 345.877 315.928 347.544 311.256C347.636 310.797 347.729 310.337 347.825 309.864C346.687 308.165 345.564 306.706 344.233 305.171C343.86 304.727 343.488 304.283 343.105 303.826C341.978 302.488 340.839 301.162 339.695 299.839C339.38 299.472 339.064 299.106 338.739 298.729C337.335 297.101 335.928 295.477 334.519 293.854C332.868 291.903 331.295 289.908 329.737 287.881C328.978 286.911 328.978 286.911 328.204 285.922C326.821 284.081 326.821 284.081 325.826 282.448C323.563 279.01 321.044 277.787 317.175 276.7C316.378 276.466 316.378 276.466 315.565 276.227C313.571 275.644 311.573 275.075 309.576 274.507C308.279 274.134 306.982 273.76 305.686 273.387C300.55 271.907 295.41 270.441 290.269 268.978C283.964 267.184 277.66 265.383 271.357 263.58C270.787 263.417 270.217 263.254 269.629 263.086C254.955 258.887 240.291 254.66 225.683 250.237C224.263 249.808 222.842 249.383 221.42 248.96C207.206 244.685 193.809 238.408 180.346 232.225C179.902 232.022 179.459 231.818 179.002 231.608C177.63 230.95 176.291 230.241 174.954 229.514C174.973 228.822 174.992 228.129 175.011 227.415C176.3 227.211 177.589 227.014 178.879 226.821C179.956 226.655 179.956 226.655 181.054 226.486C187.158 225.871 192.055 227.053 197.903 228.746ZM355.453 286.964C358.133 290.447 361.032 293.697 364.022 296.914C364.404 297.333 364.786 297.752 365.18 298.184C365.55 298.578 365.92 298.972 366.301 299.378C366.632 299.734 366.962 300.089 367.302 300.456C368.638 301.544 369.429 301.865 371.145 302.098C373.407 301.806 373.407 301.806 375.885 301.224C376.334 301.126 376.784 301.029 377.247 300.928C378.677 300.617 380.104 300.296 381.532 299.975C382.503 299.761 383.475 299.549 384.446 299.336C386.823 298.816 389.198 298.287 391.571 297.754C390.008 296.103 389.177 295.898 387.016 295.299C386.352 295.113 385.689 294.926 385.006 294.735C384.288 294.538 383.569 294.342 382.829 294.14C382.094 293.935 381.359 293.731 380.602 293.52C379.046 293.088 377.489 292.658 375.932 292.231C373.542 291.574 371.154 290.911 368.766 290.246C367.257 289.828 365.748 289.41 364.238 288.993C363.52 288.794 362.802 288.595 362.062 288.39C361.398 288.208 360.735 288.026 360.052 287.839C359.466 287.678 358.881 287.517 358.278 287.351C356.87 286.954 356.87 286.954 355.453 286.964Z" fill="#506A20"/>
<path d="M582.959 376.099C562.351 406.471 527.06 443.142 492.5 455.5C457.94 467.858 416.591 471.929 381.398 461.51C346.205 451.091 315.238 429.748 292.975 400.568C270.712 371.388 258.589 325.067 257.837 288.372L285.5 296.045C286.133 326.917 296.071 359.367 314.8 383.916C333.53 408.466 359.582 426.422 389.191 435.187C418.799 443.953 450.427 443.074 479.503 432.677C508.578 422.28 537.163 394.597 554.5 369.045L582.959 376.099Z" fill="#506A20"/>
<path d="M288.203 193.989C311.7 169.833 325.024 149.382 387.404 126.785C419.813 118.401 453.701 119.216 485.227 129.138C516.753 139.06 542.884 158.719 564 183.948C589.549 217.432 599.148 252.508 603.472 285.421L573.502 279.41C570.023 252.931 557.317 221.178 540.329 200.881C523.341 180.583 499.863 164.983 474.5 157C449.137 149.017 422.5 148.903 397 155.5C375.5 161.062 337.145 181.056 318.241 200.49L288.203 193.989Z" fill="#506A20"/>
<path d="M172.216 700.33L160.831 667.569H91.5908L80.2056 700.33H51.1618L110.179 537.685H142.243L201.028 700.33H172.216ZM100.42 642.475H152.002L126.211 569.052L100.42 642.475ZM368.299 616.219V627.372C368.299 649.678 360.941 667.956 346.225 682.207C331.51 696.303 312.302 703.351 288.602 703.351C263.508 703.351 242.752 695.218 226.332 678.954C210.068 662.689 201.936 642.707 201.936 619.007C201.936 595.462 210.068 575.558 226.332 559.293C242.752 542.874 263.044 534.664 287.208 534.664C302.388 534.664 316.252 538.149 328.799 545.12C341.346 552.09 351.105 561.462 358.075 573.234L335.072 586.478C330.735 578.733 324.307 572.537 315.787 567.89C307.268 563.088 297.741 560.687 287.208 560.687C270.169 560.687 256.151 566.264 245.153 577.417C234.155 588.569 228.656 602.51 228.656 619.24C228.656 635.969 234.155 649.833 245.153 660.83C256.306 671.828 270.866 677.327 288.835 677.327C303.24 677.327 314.935 673.997 323.92 667.336C333.059 660.521 338.868 651.459 341.346 640.151H286.976V616.219H368.299ZM483.111 700.33L448.723 641.081H417.123V700.33H390.403V537.685H455.461C470.022 537.685 482.336 542.796 492.405 553.02C502.628 563.088 507.74 575.403 507.74 589.964C507.74 600.342 504.719 609.868 498.678 618.543C492.792 627.062 485.047 633.258 475.443 637.131L512.387 700.33H483.111ZM417.123 562.779V617.149H455.461C462.586 617.149 468.627 614.515 473.584 609.249C478.541 603.982 481.02 597.554 481.02 589.964C481.02 582.373 478.541 575.945 473.584 570.678C468.627 565.412 462.586 562.779 455.461 562.779H417.123ZM665.366 678.954C649.102 695.218 629.197 703.351 605.652 703.351C582.107 703.351 562.125 695.218 545.706 678.954C529.441 662.534 521.309 642.552 521.309 619.007C521.309 595.462 529.441 575.558 545.706 559.293C562.125 542.874 582.107 534.664 605.652 534.664C629.197 534.664 649.102 542.874 665.366 559.293C681.786 575.558 689.995 595.462 689.995 619.007C689.995 642.552 681.786 662.534 665.366 678.954ZM564.526 660.83C575.679 671.828 589.387 677.327 605.652 677.327C621.917 677.327 635.548 671.828 646.546 660.83C657.699 649.678 663.275 635.737 663.275 619.007C663.275 602.278 657.699 588.415 646.546 577.417C635.548 566.264 621.917 560.687 605.652 560.687C589.387 560.687 575.679 566.264 564.526 577.417C553.528 588.415 548.029 602.278 548.029 619.007C548.029 635.737 553.528 649.678 564.526 660.83ZM809.632 537.685H836.353V700.33H815.441L738.765 589.964V700.33H712.045V537.685H732.957L809.632 648.051V537.685Z" fill="black"/>
<path d="M86.3275 773.294H61.4719V793.025H85.1804V798.073H61.4719V821.781H56.1183V768.246H86.3275V773.294ZM94.7134 821.781V765.952H99.761V821.781H94.7134ZM138.005 783.542H143.358L126.992 825.299C125.513 829.072 123.397 832.029 120.644 834.171C117.942 836.363 114.908 837.332 111.543 837.077V832.335C116.132 832.845 119.624 830.194 122.021 824.382L123.015 822.011L105.883 783.542H111.237L125.615 815.586L138.005 783.542ZM186.169 822.699C181.274 822.699 177.068 821.552 173.55 819.257C170.082 816.912 167.661 813.7 166.284 809.621L170.873 806.944C171.841 810.258 173.626 812.859 176.226 814.745C178.827 816.581 182.166 817.498 186.245 817.498C190.222 817.498 193.307 816.632 195.499 814.898C197.742 813.114 198.864 810.768 198.864 807.862C198.864 805.058 197.844 802.942 195.805 801.514C193.765 800.087 190.4 798.608 185.71 797.079C180.152 795.243 176.481 793.764 174.697 792.643C170.618 790.195 168.578 786.652 168.578 782.012C168.578 777.474 170.159 773.905 173.32 771.305C176.481 768.654 180.382 767.328 185.021 767.328C189.202 767.328 192.822 768.424 195.881 770.617C198.941 772.758 201.209 775.511 202.688 778.877L198.176 781.4C195.728 775.486 191.344 772.529 185.021 772.529C181.707 772.529 179.031 773.345 176.991 774.976C174.952 776.608 173.932 778.877 173.932 781.783C173.932 784.434 174.85 786.422 176.685 787.748C178.521 789.074 181.554 790.425 185.786 791.801C187.724 792.464 189.1 792.949 189.916 793.255C190.783 793.509 192.006 793.968 193.587 794.631C195.219 795.243 196.417 795.804 197.182 796.314C197.946 796.773 198.864 797.435 199.935 798.302C201.056 799.118 201.847 799.959 202.306 800.826C202.815 801.642 203.249 802.661 203.606 803.885C204.014 805.058 204.218 806.332 204.218 807.709C204.218 812.247 202.561 815.892 199.246 818.646C195.932 821.348 191.573 822.699 186.169 822.699ZM253.407 782.624C257.69 782.624 261.131 784.001 263.731 786.754C266.383 789.507 267.708 793.229 267.708 797.92V821.781H262.661V797.92C262.661 794.606 261.794 792.056 260.06 790.272C258.378 788.436 256.135 787.519 253.33 787.519C250.169 787.519 247.594 788.589 245.606 790.731C243.668 792.821 242.7 796.11 242.7 800.597V821.781H237.652V797.92C237.652 794.555 236.836 791.98 235.205 790.195C233.624 788.411 231.457 787.519 228.704 787.519C225.645 787.519 223.045 788.589 220.903 790.731C218.762 792.872 217.691 796.161 217.691 800.597V821.781H212.643V783.542H217.691V789.125C220.444 784.791 224.345 782.624 229.392 782.624C234.899 782.624 238.774 784.944 241.017 789.584C243.77 784.944 247.9 782.624 253.407 782.624ZM310.357 783.542H315.405V821.781H310.357V814.286C306.839 819.895 301.69 822.699 294.909 822.699C289.453 822.699 284.788 820.762 280.913 816.887C277.089 813.012 275.177 808.27 275.177 802.661C275.177 797.053 277.089 792.311 280.913 788.436C284.788 784.561 289.453 782.624 294.909 782.624C301.69 782.624 306.839 785.428 310.357 791.037V783.542ZM284.584 813.445C287.49 816.351 291.059 817.804 295.291 817.804C299.523 817.804 303.092 816.351 305.998 813.445C308.904 810.488 310.357 806.893 310.357 802.661C310.357 798.43 308.904 794.861 305.998 791.954C303.092 788.997 299.523 787.519 295.291 787.519C291.059 787.519 287.49 788.997 284.584 791.954C281.678 794.861 280.225 798.43 280.225 802.661C280.225 806.893 281.678 810.488 284.584 813.445ZM331.14 789.889C333.485 785.25 337.513 782.93 343.224 782.93V787.825C339.757 787.825 336.876 788.844 334.582 790.884C332.287 792.923 331.14 796.135 331.14 800.52V821.781H326.092V783.542H331.14V789.889ZM371.155 788.436H360.142V811.61C360.142 813.7 360.55 815.204 361.366 816.122C362.182 816.989 363.405 817.447 365.037 817.498C366.668 817.498 368.708 817.447 371.155 817.345V821.781C365.802 822.597 361.774 822.215 359.072 820.634C356.42 819.053 355.095 816.045 355.095 811.61V788.436H347.064V783.542H355.095V774.364L360.142 772.835V783.542H371.155V788.436ZM387.981 815.281L383.392 832.488H378.803L381.862 815.281H387.981ZM448.035 773.294H423.179V793.025H446.887V798.073H423.179V821.781H417.825V768.246H448.035V773.294ZM489.306 783.542H494.354V821.781H489.306V814.286C485.788 819.895 480.639 822.699 473.858 822.699C468.402 822.699 463.737 820.762 459.862 816.887C456.038 813.012 454.126 808.27 454.126 802.661C454.126 797.053 456.038 792.311 459.862 788.436C463.737 784.561 468.402 782.624 473.858 782.624C480.639 782.624 485.788 785.428 489.306 791.037V783.542ZM463.533 813.445C466.439 816.351 470.008 817.804 474.24 817.804C478.472 817.804 482.041 816.351 484.947 813.445C487.853 810.488 489.306 806.893 489.306 802.661C489.306 798.43 487.853 794.861 484.947 791.954C482.041 788.997 478.472 787.519 474.24 787.519C470.008 787.519 466.439 788.997 463.533 791.954C460.627 794.861 459.174 798.43 459.174 802.661C459.174 806.893 460.627 810.488 463.533 813.445ZM510.089 789.889C512.434 785.25 516.462 782.93 522.173 782.93V787.825C518.706 787.825 515.825 788.844 513.531 790.884C511.236 792.923 510.089 796.135 510.089 800.52V821.781H505.041V783.542H510.089V789.889ZM569.854 782.624C574.137 782.624 577.578 784.001 580.178 786.754C582.83 789.507 584.155 793.229 584.155 797.92V821.781H579.108V797.92C579.108 794.606 578.241 792.056 576.507 790.272C574.825 788.436 572.581 787.519 569.777 787.519C566.616 787.519 564.041 788.589 562.053 790.731C560.115 792.821 559.147 796.11 559.147 800.597V821.781H554.099V797.92C554.099 794.555 553.283 791.98 551.652 790.195C550.071 788.411 547.904 787.519 545.151 787.519C542.092 787.519 539.492 788.589 537.35 790.731C535.209 792.872 534.138 796.161 534.138 800.597V821.781H529.09V783.542H534.138V789.125C536.891 784.791 540.792 782.624 545.839 782.624C551.346 782.624 555.221 784.944 557.464 789.584C560.217 784.944 564.347 782.624 569.854 782.624ZM630.628 822.699C625.734 822.699 621.527 821.552 618.009 819.257C614.542 816.912 612.12 813.7 610.744 809.621L615.332 806.944C616.301 810.258 618.086 812.859 620.686 814.745C623.286 816.581 626.626 817.498 630.705 817.498C634.682 817.498 637.766 816.632 639.959 814.898C642.202 813.114 643.324 810.768 643.324 807.862C643.324 805.058 642.304 802.942 640.265 801.514C638.225 800.087 634.86 798.608 630.169 797.079C624.612 795.243 620.941 793.764 619.156 792.643C615.078 790.195 613.038 786.652 613.038 782.012C613.038 777.474 614.619 773.905 617.78 771.305C620.941 768.654 624.841 767.328 629.481 767.328C633.662 767.328 637.282 768.424 640.341 770.617C643.4 772.758 645.669 775.511 647.148 778.877L642.635 781.4C640.188 775.486 635.803 772.529 629.481 772.529C626.167 772.529 623.49 773.345 621.451 774.976C619.411 776.608 618.392 778.877 618.392 781.783C618.392 784.434 619.309 786.422 621.145 787.748C622.98 789.074 626.014 790.425 630.246 791.801C632.183 792.464 633.56 792.949 634.376 793.255C635.243 793.509 636.466 793.968 638.047 794.631C639.678 795.243 640.876 795.804 641.641 796.314C642.406 796.773 643.324 797.435 644.395 798.302C645.516 799.118 646.306 799.959 646.765 800.826C647.275 801.642 647.709 802.661 648.066 803.885C648.473 805.058 648.677 806.332 648.677 807.709C648.677 812.247 647.02 815.892 643.706 818.646C640.392 821.348 636.033 822.699 630.628 822.699ZM697.866 782.624C702.149 782.624 705.591 784.001 708.191 786.754C710.842 789.507 712.168 793.229 712.168 797.92V821.781H707.12V797.92C707.12 794.606 706.254 792.056 704.52 790.272C702.838 788.436 700.594 787.519 697.79 787.519C694.629 787.519 692.054 788.589 690.066 790.731C688.128 792.821 687.159 796.11 687.159 800.597V821.781H682.112V797.92C682.112 794.555 681.296 791.98 679.664 790.195C678.084 788.411 675.917 787.519 673.164 787.519C670.105 787.519 667.504 788.589 665.363 790.731C663.221 792.872 662.151 796.161 662.151 800.597V821.781H657.103V783.542H662.151V789.125C664.904 784.791 668.804 782.624 673.852 782.624C679.359 782.624 683.234 784.944 685.477 789.584C688.23 784.944 692.36 782.624 697.866 782.624ZM754.817 783.542H759.865V821.781H754.817V814.286C751.299 819.895 746.149 822.699 739.368 822.699C733.913 822.699 729.248 820.762 725.373 816.887C721.549 813.012 719.637 808.27 719.637 802.661C719.637 797.053 721.549 792.311 725.373 788.436C729.248 784.561 733.913 782.624 739.368 782.624C746.149 782.624 751.299 785.428 754.817 791.037V783.542ZM729.044 813.445C731.95 816.351 735.519 817.804 739.751 817.804C743.983 817.804 747.552 816.351 750.458 813.445C753.364 810.488 754.817 806.893 754.817 802.661C754.817 798.43 753.364 794.861 750.458 791.954C747.552 788.997 743.983 787.519 739.751 787.519C735.519 787.519 731.95 788.997 729.044 791.954C726.137 794.861 724.684 798.43 724.684 802.661C724.684 806.893 726.137 810.488 729.044 813.445ZM775.6 789.889C777.945 785.25 781.973 782.93 787.683 782.93V787.825C784.216 787.825 781.336 788.844 779.041 790.884C776.747 792.923 775.6 796.135 775.6 800.52V821.781H770.552V783.542H775.6V789.889ZM815.615 788.436H804.602V811.61C804.602 813.7 805.01 815.204 805.826 816.122C806.641 816.989 807.865 817.447 809.497 817.498C811.128 817.498 813.168 817.447 815.615 817.345V821.781C810.261 822.597 806.233 822.215 803.531 820.634C800.88 819.053 799.554 816.045 799.554 811.61V788.436H791.524V783.542H799.554V774.364L804.602 772.835V783.542H815.615V788.436ZM839.379 782.624C845.038 782.624 849.602 784.638 853.069 788.666C856.587 792.643 858.346 797.359 858.346 802.814C858.346 803.375 858.295 804.166 858.193 805.185H824.619C825.128 809.06 826.76 812.145 829.513 814.439C832.317 816.683 835.759 817.804 839.838 817.804C842.744 817.804 845.242 817.218 847.333 816.045C849.474 814.822 851.08 813.241 852.151 811.304L856.587 813.904C854.904 816.606 852.61 818.748 849.704 820.328C846.797 821.909 843.483 822.699 839.761 822.699C833.745 822.699 828.85 820.813 825.077 817.04C821.304 813.267 819.418 808.474 819.418 802.661C819.418 796.951 821.279 792.184 825.001 788.36C828.723 784.536 833.516 782.624 839.379 782.624ZM839.379 787.519C835.402 787.519 832.063 788.717 829.36 791.113C826.709 793.459 825.128 796.518 824.619 800.291H853.145C852.635 796.263 851.08 793.127 848.48 790.884C845.88 788.64 842.846 787.519 839.379 787.519ZM871.423 789.889C873.768 785.25 877.796 782.93 883.506 782.93V787.825C880.039 787.825 877.159 788.844 874.864 790.884C872.57 792.923 871.423 796.135 871.423 800.52V821.781H866.375V783.542H871.423V789.889Z" fill="black"/>
</svg>
