<svg width="593" height="488" viewBox="0 0 593 488" fill="none" xmlns="http://www.w3.org/2000/svg">
<path d="M26.1314 178.746C27.4658 179.123 28.8002 179.501 30.1347 179.878C31.5567 180.281 32.9778 180.687 34.3987 181.094C38.9075 182.385 43.4223 183.655 47.9364 184.928C49.4885 185.366 51.0403 185.804 52.5921 186.243C62.6632 189.087 72.7587 191.837 82.8638 194.558C83.6895 194.781 84.5153 195.003 85.3661 195.232C88.61 196.105 91.854 196.978 95.0985 197.849C99.6896 199.081 104.279 200.32 108.866 201.566C111.645 202.321 114.424 203.072 117.204 203.822C118.484 204.168 119.764 204.516 121.044 204.865C122.77 205.336 124.498 205.801 126.226 206.266C126.732 206.405 127.239 206.544 127.761 206.688C128.921 206.997 130.093 207.265 131.265 207.522C131.503 207.297 131.74 207.073 131.984 206.841C131.428 206.123 130.872 205.405 130.298 204.664C126.094 199.221 121.948 193.75 117.942 188.158C116.85 186.664 115.738 185.253 114.559 183.831C113.06 181.815 113.06 181.815 113.118 179.716C125.666 179.336 125.666 179.336 128.817 181.808C129.642 182.646 130.432 183.518 131.196 184.411C132.33 185.596 133.465 186.779 134.601 187.962C135.175 188.582 135.749 189.203 136.341 189.842C137.772 191.357 139.232 192.775 140.777 194.17C143.357 196.502 145.709 199.008 148.082 201.548C149.852 203.391 151.707 205.105 153.628 206.79C155.056 208.172 155.056 208.172 156.161 209.685C161.061 216.085 168.029 217.055 175.465 218.883C176.927 219.26 178.387 219.639 179.847 220.02C183.11 220.868 186.376 221.705 189.644 222.535C195.362 223.993 201.061 225.523 206.759 227.058C211.317 228.286 215.877 229.508 220.436 230.731C221.569 231.035 222.702 231.34 223.835 231.644C227.094 232.52 230.354 233.392 233.615 234.256C234.617 234.523 235.618 234.791 236.619 235.061C238 235.433 239.383 235.798 240.765 236.163C241.931 236.474 241.931 236.474 243.12 236.792C247.149 237.634 247.149 237.634 251.005 236.614C251.463 236.26 251.92 235.906 252.392 235.542C252.912 235.149 253.431 234.757 253.967 234.352C254.508 233.927 255.05 233.502 255.608 233.064C256.752 232.195 257.897 231.326 259.041 230.458C259.883 229.81 259.883 229.81 260.742 229.149C262.986 227.426 265.257 225.741 267.539 224.068C268.236 223.55 268.933 223.032 269.65 222.498C274.36 219.339 278.035 218.58 283.572 219.6C286.842 220.254 290.091 220.99 293.337 221.752C293.008 225.52 290.805 227.276 288.217 229.753C287.365 230.592 286.515 231.434 285.667 232.277C285.246 232.694 284.826 233.112 284.392 233.542C281.662 236.324 279.167 239.315 276.67 242.305C278.952 243.136 280.657 243.205 283.083 243.273C284.404 243.312 284.404 243.312 285.753 243.35C286.712 243.374 287.672 243.397 288.631 243.42C289.121 243.432 289.611 243.445 290.115 243.458C296.335 243.619 302.54 243.666 308.761 243.532C316.132 243.389 323.494 243.462 330.864 243.623C332.126 243.649 333.388 243.672 334.65 243.69C345.694 243.861 358.808 244.466 367.128 252.838C367.825 253.62 368.517 254.406 369.205 255.195C373.245 259.706 376.525 261.82 382.484 262.989C383.196 263.143 383.908 263.298 384.642 263.457C386.271 263.809 387.902 264.153 389.535 264.493C392.541 265.118 395.538 265.782 398.535 266.448C405.291 267.946 412.052 269.418 418.815 270.884C420.857 271.326 422.898 271.769 424.939 272.212C506.676 290.687 506.676 290.687 589.419 303.367C589.394 304.291 589.369 305.214 589.343 306.166C576.527 309.458 564.393 311.255 551.133 311.031C550.296 311.023 549.458 311.016 548.595 311.009C526.741 310.359 504.674 304.379 483.329 300.097C480.656 299.561 477.982 299.027 475.308 298.494C455.913 294.625 436.53 290.708 417.171 286.665C416.005 286.422 416.005 286.422 414.816 286.173C407.45 284.636 400.085 283.095 392.725 281.531C390.071 280.968 387.415 280.41 384.76 279.853C383.539 279.596 382.318 279.336 381.098 279.074C379.444 278.718 377.789 278.371 376.134 278.025C375.656 277.92 375.178 277.815 374.685 277.707C370.815 276.912 368.553 276.965 365.231 279.143C364.415 279.765 363.603 280.394 362.795 281.027C361.9 281.708 361.005 282.388 360.11 283.068C359.217 283.754 358.324 284.44 357.431 285.126C345.67 294.105 335.257 300.866 319.924 299.507C319.48 299.379 319.036 299.25 318.578 299.118C304.621 295.355 282.239 297.503 268.501 301.519C263.093 303.023 257.706 302.883 252.138 302.764C250.764 302.739 249.389 302.732 248.014 302.725C234.676 302.447 222.189 298.207 209.607 294.088C207.245 293.317 204.879 292.559 202.513 291.802C200.985 291.307 199.458 290.81 197.93 290.313C197.235 290.091 196.54 289.869 195.824 289.641C188.044 287.071 180.447 283.784 176.347 276.329C174.404 271.817 174.105 265.928 175.772 261.256C175.865 260.797 175.957 260.337 176.053 259.864C174.915 258.165 173.792 256.706 172.461 255.171C172.089 254.727 171.716 254.283 171.333 253.826C170.206 252.488 169.068 251.162 167.924 249.839C167.608 249.472 167.292 249.106 166.967 248.729C165.564 247.101 164.157 245.477 162.748 243.854C161.096 241.903 159.523 239.908 157.965 237.881C157.206 236.911 157.206 236.911 156.432 235.922C155.049 234.081 155.049 234.081 154.054 232.448C151.792 229.01 149.272 227.787 145.403 226.7C144.606 226.466 144.606 226.466 143.793 226.227C141.799 225.644 139.802 225.075 137.804 224.507C136.507 224.134 135.211 223.76 133.914 223.387C128.778 221.907 123.639 220.441 118.498 218.978C112.192 217.184 105.888 215.383 99.5854 213.58C99.0151 213.417 98.4449 213.254 97.8574 213.086C83.1839 208.887 68.519 204.66 53.9114 200.237C52.4913 199.808 51.0699 199.383 49.648 198.96C35.4345 194.685 22.0377 188.408 8.57391 182.225C8.13056 182.022 7.68722 181.818 7.23044 181.608C5.8581 180.95 4.5196 180.241 3.18229 179.514C3.20121 178.822 3.22013 178.129 3.23963 177.415C4.52791 177.211 5.81739 177.014 7.1073 176.821C8.18421 176.655 8.18421 176.655 9.28287 176.486C15.3865 175.871 20.2833 177.053 26.1314 178.746ZM183.681 236.964C186.361 240.447 189.261 243.697 192.25 246.914C192.632 247.333 193.015 247.752 193.408 248.184C193.778 248.578 194.148 248.972 194.53 249.378C194.86 249.734 195.19 250.089 195.53 250.456C196.866 251.544 197.657 251.865 199.374 252.098C201.635 251.806 201.635 251.806 204.113 251.224C204.563 251.126 205.012 251.029 205.475 250.928C206.905 250.617 208.333 250.296 209.761 249.975C210.732 249.761 211.703 249.549 212.675 249.336C215.051 248.816 217.426 248.287 219.8 247.754C218.236 246.103 217.405 245.898 215.244 245.299C214.581 245.113 213.918 244.926 213.234 244.735C212.516 244.538 211.798 244.342 211.058 244.14C210.323 243.935 209.587 243.731 208.83 243.52C207.274 243.088 205.718 242.658 204.161 242.231C201.771 241.574 199.383 240.911 196.995 240.246C195.485 239.828 193.976 239.41 192.466 238.993C191.748 238.794 191.03 238.595 190.29 238.39C189.627 238.208 188.963 238.026 188.28 237.839C187.695 237.678 187.109 237.517 186.506 237.351C185.098 236.954 185.098 236.954 183.681 236.964Z" fill="#506A20"/>
<path d="M411.187 326.099C390.58 356.471 355.289 393.142 320.729 405.5C286.169 417.858 244.819 421.929 209.626 411.51C174.433 401.091 143.466 379.748 121.204 350.568C98.9409 321.388 86.8176 275.067 86.0654 238.372L113.729 246.045C114.361 276.917 124.299 309.367 143.029 333.916C161.758 358.466 187.811 376.422 217.419 385.187C247.027 393.953 278.656 393.074 307.731 382.677C336.807 372.28 365.391 344.597 382.729 319.045L411.187 326.099Z" fill="#506A20"/>
<path d="M116.432 143.989C139.929 119.833 153.253 99.3815 215.633 76.7848C248.041 68.4008 281.93 69.2162 313.456 79.1383C344.982 89.0605 371.113 108.719 392.229 133.948C417.777 167.432 427.376 202.508 431.7 235.421L401.73 229.41C398.252 202.931 385.546 171.178 368.558 150.881C351.57 130.583 328.092 114.983 302.729 107C277.365 99.0174 250.729 98.9033 225.229 105.5C203.729 111.062 165.374 131.056 146.47 150.49L116.432 143.989Z" fill="#506A20"/>
</svg>
